PathFileType	4	(X/Y/Z)	F:\MotionCapture\20160217\3\Generated_files\2_Test01-Dynamic.trc
DataRate	CameraRate	NumFrames	NumMarkers	Units	OrigDataRate	OrigDataStartFrame	OrigNumFrames
120.00	120.00	       5	39	mm	120.00	346	       690
Frame#	Time	Top.Head			Front.Head			Rear.Head			R.Shoulder			R.Offset			R.Elbow			R.Wrist			L.Shoulder			L.Elbow			L.Wrist			R.ASIS			L.ASIS			V.Sacral			R.Thigh			R.Knee			R.Shank			R.Ankle			R.Heel			R.Toe			L.Thigh			L.Knee			L.Shank			L.Ankle			L.Heel			L.Toe			R1			R2			R3			R4			R5			R6			R7			L1			L2			L3			L4			L5			L6			L7			V_Mid_ASIS			V_Pelvis_Origin			V_R.Hip_JC			V_L.Hip_JC			V_R.Knee_JC			V_L.Knee_JC			V_R.Ankle_JC			V_L.Ankle_JC			V_Mid_Hip			V_Mid_Shoulder			V_R.Hand			V_L.Hand			V_R.Toe_Offset_Static			V_L.Toe_Offset_Static			V_R.Toe_Offset			V_L.Toe_Offset			
		X1	Y1	Z1	X2	Y2	Z2	X3	Y3	Z3	X4	Y4	Z4	X5	Y5	Z5	X6	Y6	Z6	X7	Y7	Z7	X8	Y8	Z8	X9	Y9	Z9	X10	Y10	Z10	X11	Y11	Z11	X12	Y12	Z12	X13	Y13	Z13	X14	Y14	Z14	X15	Y15	Z15	X16	Y16	Z16	X17	Y17	Z17	X18	Y18	Z18	X19	Y19	Z19	X20	Y20	Z20	X21	Y21	Z21	X22	Y22	Z22	X23	Y23	Z23	X24	Y24	Z24	X25	Y25	Z25	X26	Y26	Z26	X27	Y27	Z27	X28	Y28	Z28	X29	Y29	Z29	X30	Y30	Z30	X31	Y31	Z31	X32	Y32	Z32	X33	Y33	Z33	X34	Y34	Z34	X35	Y35	Z35	X36	Y36	Z36	X37	Y37	Z37	X38	Y38	Z38	X39	Y39	Z39	

346	2.875	899.44122	159.97430	1722.66394	797.75946	153.69344	1627.47314	1014.64069	153.41794	1665.84351	995.48584	339.11124	1424.72729	1122.81396	61.41457	1292.17786	1079.10645	449.91360	1117.17920	978.01666	459.26852	872.14417	948.56335	-63.18410	1429.48254	959.84387	-179.31375	1112.15588	840.86511	-174.96790	883.67706	945.57324	278.19525	958.86841	926.41400	-5.44370	954.45148	1161.29565	123.23015	956.90076	817.34412	286.66650	616.89258	890.91199	331.69348	494.37408	988.66260	240.37032	289.67435	1143.29712	285.18555	184.16476	1193.65796	208.77527	200.05731	1042.19763	279.29575	77.00831	896.60229	56.98521	624.06995	987.84290	8.01580	463.30542	991.38873	91.02146	325.75180	1076.86829	33.75446	63.84717	1144.51807	88.04789	48.93334	937.88544	47.54460	41.06514	1000.44415	271.90109	58.30660	1025.66113	246.51651	80.26944	1086.63171	203.36125	146.33685	1152.64685	187.57144	178.04065	1180.06165	257.17975	181.36208	1128.66321	293.54410	126.36179	1082.02722	310.39227	85.14541	893.04272	76.26073	36.10298	928.42712	87.04968	44.50789	1025.32690	125.76927	50.27898	1110.31177	121.91603	48.22529	1115.40674	50.17277	45.71974	1042.03284	25.20967	35.94762	979.92517	12.98033	40.05581																																																	896.44165	94.32410	-62.23459	
347	2.883	887.97607	160.18825	1722.01489	786.61737	154.30739	1626.79370	1003.41528	153.57474	1665.40784	984.84729	338.69077	1423.99414	1111.93652	60.84321	1291.97156	1072.21851	449.28046	1117.45093	976.12402	460.41928	870.56653	936.45679	-63.08476	1429.66382	941.96301	-179.26704	1111.64197	817.92664	-172.17668	886.44098	934.43164	278.01068	959.31018	916.47290	-6.26054	953.73676	1151.01123	124.07050	956.19110	801.43555	286.52856	620.99371	872.92719	331.52902	496.54013	961.33575	239.49744	288.07074	1111.35901	284.86032	175.24634	1162.67554	208.34280	188.88904	1005.58148	279.00211	73.96644	890.14856	56.40741	622.13452	983.95660	8.45046	462.79861	988.91516	90.98457	325.40814	1076.71936	33.84119	64.19881	1144.11719	88.29332	49.02739	937.95648	47.48590	41.02017	962.52490	272.07697	57.70599	990.11731	247.00056	78.02220	1052.86145	203.40591	140.70851	1121.28748	187.03271	169.27634	1149.33826	257.67181	171.27257	1093.77222	293.80728	118.63322	1045.69934	310.60080	80.38107	892.82635	76.08228	35.99301	928.16943	86.97011	44.62896	1025.24890	125.79836	50.25742	1110.04309	122.02229	48.53253	1117.08447	49.12677	47.26335	1042.81873	25.96755	35.70053	979.91632	12.82024	40.00069	
348	2.892	876.63074	160.65234	1721.06628	775.14178	154.81284	1626.03394	991.89130	153.56371	1664.73584	974.95154	338.92502	1422.77185	1100.95532	60.04902	1291.69739	1066.06165	448.86334	1117.38892	974.15961	460.51913	868.46088	925.02710	-63.01492	1429.53577	924.49274	-178.71577	1111.26074	793.93079	-168.19817	889.38953	923.32379	277.42798	959.07104	906.84412	-6.85300	952.72388	1140.56287	125.00629	955.01831	784.79688	285.67822	624.72418	853.66095	330.60971	497.91528	934.74493	239.40413	285.73969	1078.74792	284.41843	166.34410	1130.93347	207.98450	177.74078	968.69830	279.23557	71.00092	884.07092	56.44860	620.36316	980.52515	7.94326	462.00830	986.44934	90.95821	324.67355	1076.54285	33.84008	64.64254	1144.22974	88.58353	49.59665	937.87903	47.47710	40.97811	924.55957	272.03677	57.40455	952.80756	246.59213	75.70195	1018.69836	203.32610	134.67969	1088.77124	187.02872	159.30524	1116.52161	257.87616	160.72818	1058.30042	293.87082	111.86090	1008.57190	310.98520	75.35131	892.64453	75.66563	36.11193	928.06995	86.92934	44.61929	1025.10315	125.79086	50.24957	1109.71411	122.15751	48.90920	1115.47803	50.23748	46.32079	1042.77014	25.97932	35.67621	979.81793	12.79967	39.86306	
349	2.900	865.88531	161.04399	1720.20435	763.57983	155.06313	1624.88293	980.84253	153.58194	1664.08838	964.51782	338.98633	1421.55676	1090.08911	59.56721	1291.26978	1058.88306	448.42056	1117.01563	972.02789	461.44559	866.82068	913.17749	-62.79955	1428.90637	907.30896	-178.31641	1110.64709	771.30304	-164.71938	891.90607	911.89191	277.36716	958.65399	896.89954	-7.07845	951.69159	1130.38098	126.30350	953.94922	769.44397	284.41049	627.66241	834.83160	330.25836	498.94916	907.85992	238.87517	284.03058	1045.36694	284.75961	157.92986	1097.97144	207.89308	165.91429	930.79517	280.01559	68.54540	877.47491	56.17828	618.39716	976.87042	7.85205	461.33688	984.10022	90.93668	323.97403	1076.36121	33.94996	65.05814	1144.04456	88.98669	50.14502	937.83820	47.39606	40.87058	886.21411	272.35385	57.36841	915.36237	246.82561	73.46716	983.60400	202.76971	128.99677	1055.42944	187.55232	150.02740	1082.65869	257.80615	149.75481	1022.88556	294.42462	103.74726	971.00940	310.90131	70.74605	892.66022	75.18462	36.02626	928.02875	86.79879	44.60136	1025.48376	125.83773	49.86772	1109.31396	122.34599	49.20929	1115.44250	50.35369	46.76761	1042.78235	26.00915	35.69378	979.81219	12.73968	39.76865																																																	1327.43176	145.02599	-24.35086	
350	2.908	854.34088	161.42850	1719.16309	753.04480	155.79663	1623.77234	969.52899	154.07315	1662.92712	954.42029	339.19754	1420.24890	1079.02271	59.08703	1290.35693	1051.57056	447.66599	1116.57166	970.23340	461.38037	864.72589	901.26184	-62.41078	1428.16467	889.42871	-177.62810	1109.80664	748.20911	-161.16042	895.07465	900.44720	276.80695	957.81647	886.92438	-7.61531	950.74957	1120.26245	127.06092	952.48132	753.97510	283.90637	630.06140	816.74139	329.51617	500.38657	880.35803	238.30473	281.92349	1011.42670	285.03787	148.86754	1065.64282	208.67496	154.67690	892.84064	279.69193	66.00207	870.88452	56.41885	616.48407	972.19513	8.33047	460.63107	981.13007	90.80653	323.46704	1076.29309	34.06022	65.53134	1143.59546	89.33739	50.73433	937.85236	47.27155	40.92867	847.78430	272.53766	57.86957	877.93976	246.77509	71.92641	951.12000	203.60033	122.64590	1021.53088	187.82272	140.71811	1049.56311	258.99860	139.55362	987.22144	293.76288	95.94638	933.17920	311.53143	66.30130	892.56128	74.87621	35.95414	927.72784	86.88919	44.49858	1024.81824	125.86508	50.12869	1109.37659	122.63337	49.74055	1115.18530	50.52621	47.13313	1042.79614	26.04072	35.80158	979.84161	12.74647	39.77361	
